<?xml version="1.0" encoding="iso-8859-1"?>
<!-- Generator: Adobe Illustrator 21.0.2, SVG Export Plug-In . SVG Version: 6.00 Build 0)  -->
<svg xmlns="http://www.w3.org/2000/svg" xmlns:xlink="http://www.w3.org/1999/xlink" version="1.1" id="Layer_1" x="0px" y="0px" viewBox="0 0 40 40" style="enable-background:new 0 0 40 40;" xml:space="preserve">
<g>
	<rect x="2.5" y="2.5" style="fill:#B6DCFE;" width="35" height="35"/>
	<g>
		<path style="fill:#4788C7;" d="M37,3v34H3V3H37 M38,2H2v36h36V2L38,2z"/>
	</g>
</g>
<g>
	<rect x="23.5" y="2.5" style="fill:#B6DCFE;" width="14" height="7"/>
	<g>
		<path style="fill:#4788C7;" d="M37,3v6H24V3H37 M38,2H23v8h15V2L38,2z"/>
	</g>
</g>
<g>
	<rect x="9.5" y="2.5" style="fill:#B6DCFE;" width="14" height="7"/>
	<g>
		<path style="fill:#4788C7;" d="M23,3v6H10V3H23 M24,2H9v8h15V2L24,2z"/>
	</g>
</g>
<g>
	<rect x="2.5" y="9.5" style="fill:#B6DCFE;" width="14" height="7"/>
	<g>
		<path style="fill:#4788C7;" d="M16,10v6H3v-6H16 M17,9H2v8h15V9L17,9z"/>
	</g>
</g>
<g>
	<rect x="16.5" y="9.5" style="fill:#B6DCFE;" width="14" height="7"/>
	<g>
		<path style="fill:#4788C7;" d="M30,10v6H17v-6H30 M31,9H16v8h15V9L31,9z"/>
	</g>
</g>
<g>
	<rect x="23.5" y="16.5" style="fill:#B6DCFE;" width="14" height="7"/>
	<g>
		<path style="fill:#4788C7;" d="M37,17v6H24v-6H37 M38,16H23v8h15V16L38,16z"/>
	</g>
</g>
<g>
	<rect x="9.5" y="16.5" style="fill:#B6DCFE;" width="14" height="7"/>
	<g>
		<path style="fill:#4788C7;" d="M23,17v6H10v-6H23 M24,16H9v8h15V16L24,16z"/>
	</g>
</g>
<g>
	<rect x="16.5" y="23.5" style="fill:#B6DCFE;" width="14" height="7"/>
	<g>
		<path style="fill:#4788C7;" d="M30,24v6H17v-6H30 M31,23H16v8h15V23L31,23z"/>
	</g>
</g>
<g>
	<rect x="2.5" y="23.5" style="fill:#B6DCFE;" width="14" height="7"/>
	<g>
		<path style="fill:#4788C7;" d="M16,24v6H3v-6H16 M17,23H2v8h15V23L17,23z"/>
	</g>
</g>
<g>
	<rect x="23.5" y="30.5" style="fill:#B6DCFE;" width="14" height="7"/>
	<g>
		<path style="fill:#4788C7;" d="M37,31v6H24v-6H37 M38,30H23v8h15V30L38,30z"/>
	</g>
</g>
<g>
	<rect x="9.5" y="30.5" style="fill:#B6DCFE;" width="14" height="7"/>
	<g>
		<path style="fill:#4788C7;" d="M23,31v6H10v-6H23 M24,30H9v8h15V30L24,30z"/>
	</g>
</g>
</svg>
