<?xml version="1.0" encoding="iso-8859-1"?>
<!-- Generator: Adobe Illustrator 19.2.0, SVG Export Plug-In . SVG Version: 6.00 Build 0)  -->
<svg xmlns="http://www.w3.org/2000/svg" xmlns:xlink="http://www.w3.org/1999/xlink" version="1.1" id="Layer_1" x="0px" y="0px" viewBox="0 0 40 40" style="enable-background:new 0 0 40 40;" xml:space="preserve">
<path style="fill:none;stroke:#4788C7;stroke-width:2;stroke-linecap:round;stroke-miterlimit:10;" d="M30,11L16.211,27.642  C15.578,28.467,14.582,29,13.462,29C11.55,29,10,27.45,10,25.538c0-0.811,0.279-1.557,0.746-2.147L27.044,4.17  C28.186,2.841,29.88,2,31.769,2C35.21,2,38,4.79,38,8.231c0,1.403-0.463,2.697-1.246,3.738l-19.26,23.262  C15.856,36.938,13.552,38,11,38c-4.971,0-9-4.029-9-9c0-1.784,0.519-3.448,1.415-4.847L20,5"/>
</svg>
