<?xml version="1.0" encoding="iso-8859-1"?>
<!-- Generator: Adobe Illustrator 21.0.2, SVG Export Plug-In . SVG Version: 6.00 Build 0)  -->
<svg xmlns="http://www.w3.org/2000/svg" xmlns:xlink="http://www.w3.org/1999/xlink" version="1.1" id="Layer_1" x="0px" y="0px" viewBox="0 0 40 40" style="enable-background:new 0 0 40 40;" xml:space="preserve">
<g>
	<g>
		<polygon style="fill:#DFF0FE;" points="14.006,33.475 1.5,37.323 1.5,6.369 13.994,2.525 25.994,6.525 38.5,2.677 38.5,33.631     26.006,37.475   "/>
	</g>
	<g>
		<path style="fill:#4788C7;" d="M13.988,3.05l11.696,3.899l0.304,0.101l0.306-0.094L38,3.354v29.907L26.012,36.95l-11.696-3.899    l-0.304-0.101l-0.306,0.094L2,36.646V6.739L13.988,3.05 M39,2L26,6L14,2L1,6v32l13-4l12,4l13-4V2L39,2z"/>
	</g>
</g>
<path style="fill:#FFFFFF;" d="M26,37l-12-4V3l12,4V37z"/>
<polygon style="fill:#98CCFD;" points="26,28 26,37 31.969,35.141 32,34 "/>
<g>
	<polygon style="fill:#B6DCFE;" points="26,37 26,28 19,19 19,34.667  "/>
</g>
<g>
	<polygon style="fill:#DFF0FE;" points="22.249,25.313 19.951,19.952 25.329,22.249 27.215,24.135 23.931,26.996  "/>
	<g>
		<path style="fill:#4788C7;" d="M20.902,20.902l4.142,1.769l1.439,1.439l-2.529,2.203l-1.284-1.284L20.902,20.902 M19,19.002    l2.827,6.597l2.081,2.081l4.041-3.519l-2.334-2.334L19,19.002L19,19.002z"/>
	</g>
</g>
<g>
	<polygon style="fill:#4788C7;" points="20.604,22.739 19.002,19 22.751,20.601  "/>
</g>
<g>
	<path style="fill:#B6DCFE;" d="M37.327,39.502c-0.581,0-1.126-0.226-1.537-0.637l-0.884-0.884l3.073-3.073l0.884,0.884   c0.847,0.847,0.847,2.226,0,3.073C38.453,39.276,37.908,39.502,37.327,39.502z"/>
	<g>
		<path style="fill:#4788C7;" d="M37.98,35.616l0.53,0.53c0.652,0.652,0.652,1.714,0,2.366c-0.316,0.316-0.736,0.49-1.183,0.49    s-0.867-0.174-1.183-0.49l-0.53-0.53L37.98,35.616 M37.98,34.202l-3.78,3.78l1.237,1.237c0.522,0.522,1.206,0.783,1.89,0.783    c0.684,0,1.368-0.261,1.89-0.783c1.044-1.044,1.044-2.736,0-3.78L37.98,34.202L37.98,34.202z"/>
	</g>
</g>
<g>
	<path style="fill:#B6DCFE;" d="M22.775,25.841c0.343-0.207,0.613-0.541,0.715-1.012c0.581-0.149,1.208-0.567,1.384-1.36   c0.378-0.07,0.68-0.236,0.9-0.495c0.045-0.053,0.084-0.106,0.119-0.161l10.473,10.481l-3.073,3.073L22.775,25.841z"/>
	<g>
		<path style="fill:#4788C7;" d="M25.91,23.537l9.749,9.757l-2.366,2.366l-9.78-9.788c0.161-0.182,0.292-0.398,0.383-0.647    c0.57-0.214,1.128-0.642,1.383-1.346C25.541,23.792,25.748,23.668,25.91,23.537 M25.614,21.827c0,0,0.189,1.182-1.191,1.182    c0,1.343-1.388,1.386-1.388,1.386c0,1.167-1.057,1.205-1.194,1.205c-0.01,0-0.015,0-0.015,0l11.466,11.476l3.78-3.78    L25.614,21.827L25.614,21.827z"/>
	</g>
</g>
<g>
	
		<rect x="33.344" y="33.893" transform="matrix(0.7071 -0.7071 0.7071 0.7071 -14.7132 35.5182)" style="fill:#DFF0FE;" width="4.346" height="3.254"/>
	<g>
		<path style="fill:#4788C7;" d="M35.904,33.54l1.594,1.594l-2.366,2.366l-1.594-1.594L35.904,33.54 M35.904,32.126l-3.78,3.78    l3.008,3.008l3.78-3.78L35.904,32.126L35.904,32.126z"/>
	</g>
</g>
</svg>
